<svg aria-hidden="true" style="position: absolute; width: 0; height: 0; overflow: hidden;" version="1.1" xmlns="http://www.w3.org/2000/svg" xmlns:xlink="http://www.w3.org/1999/xlink">
<defs>
<symbol id="icon-logo" viewBox="0 0 75 32">
<path d="M13.033 2.222c-0.142 0-0.292 0-0.433 0.017-1.635 0.137-3.138 0.831-4.209 2.097-1.165 1.377-1.447 2.829-1.433 4.582l-3.116-0.005q-0.209-0.001-0.43-0.008c-0.407-0.011-0.829-0.023-1.21 0.047-0.229 0.042-0.43 0.154-0.591 0.322-0.283 0.295-0.29 0.667-0.271 1.047 0.029 0.601 0.080 1.202 0.132 1.803q0.043 0.491 0.080 0.98l0.518 6.683 0.251 3.227q0.018 0.24 0.033 0.482c0.035 0.577 0.071 1.163 0.224 1.716 0.511 1.792 1.916 3.166 3.689 3.624l0.036 0.008c0.699 0.169 1.51 0.15 2.273 0.132q0.341-0.009 0.663-0.011h7.859c0.2 0 0.407 0.005 0.615 0.010 0.677 0.016 1.382 0.033 2.015-0.115 0.89-0.207 1.79-0.695 2.44-1.339 0.604-0.6 1.087-1.4 1.298-2.227 0.161-0.633 0.202-1.327 0.241-2 0.013-0.217 0.025-0.433 0.041-0.643l0.344-4.427 0.429-5.434q0.032-0.403 0.075-0.812c0.058-0.589 0.117-1.183 0.115-1.765 0-0.358-0.076-0.692-0.333-0.958-0.176-0.183-0.465-0.273-0.709-0.313-0.367-0.059-0.768-0.049-1.157-0.039q-0.216 0.007-0.423 0.008-1.47-0.003-2.941 0.011h-0.042c0.023-1.877-0.395-3.489-1.745-4.863-1.090-1.129-2.615-1.832-4.304-1.839h-0.001zM18.973 12.935l0.053 0.003 0.004 0.010 0.008 0.019 0.003 0.005c0.009 0.022 0.011 0.027 0.011 0.061-0.017 2.303-0.633 5.268-2.268 6.955-1.513 1.561-3.863 2.328-6.007 2.371 0.998-1.878 2.603-3.659 4.257-4.981 0.256-0.204 0.523-0.389 0.792-0.573 0.172-0.12 0.345-0.239 0.515-0.363 0.165-0.121 0.387-0.285 0.409-0.505 0.021-0.203-0.087-0.36-0.213-0.505-0.178-0.103-0.308-0.147-0.511-0.087-0.289 0.085-0.579 0.298-0.841 0.491q-0.105 0.077-0.202 0.147c-2.118 1.511-3.851 3.422-5.118 5.633l-0.045 0.086c-0.043-1.842 0.377-3.385 1.506-4.867 1.695-2.223 4.94-3.531 7.649-3.899zM2.502 10.068h21.051c-0.075 0.709-0.123 1.424-0.171 2.138q-0.039 0.597-0.085 1.192l-0.567 7.103-0.212 2.617-0.027 0.343c-0.034 0.451-0.069 0.907-0.156 1.349-0.089 0.453-0.263 0.848-0.498 1.244-0.101 0.151-0.198 0.28-0.301 0.404l0.006-0.007c-0.61 0.729-1.612 1.273-2.563 1.345-0.518 0.039-1.051 0.029-1.58 0.020q-0.342-0.007-0.681-0.009l-7.843 0.001q-0.251 0.001-0.51 0.007c-0.527 0.011-1.067 0.023-1.573-0.065-0.695-0.124-1.305-0.424-1.802-0.851l0.005 0.004c-0.599-0.508-1.042-1.185-1.255-1.957l-0.006-0.028c-0.142-0.513-0.177-1.061-0.212-1.599q-0.013-0.203-0.028-0.402l-0.207-2.663zM19.44 11.7l-0.016 0.001c-3.195 0.37-6.833 1.684-8.899 4.273-1.328 1.664-2.053 3.827-1.813 5.959 0.053 0.468 0.159 0.915 0.311 1.36l-0.063 0.157c-0.262 0.659-0.871 2.191-0.66 2.645 0.067 0.127 0.181 0.221 0.318 0.26l0.004 0.001q0.083 0.026 0.17 0.035c0.179-0.029 0.345-0.067 0.453-0.227 0.115-0.172 0.233-0.586 0.335-0.94 0.048-0.169 0.093-0.323 0.131-0.433 0.131-0.373 0.28-0.74 0.429-1.106l0.002-0.004 0.052-0.129c2.635 0.008 5.45-0.817 7.356-2.698 2.132-2.104 2.669-5.497 2.673-8.367 0-0.227-0.015-0.495-0.181-0.668-0.102-0.107-0.255-0.139-0.397-0.136-0.078 0.003-0.149 0.009-0.22 0.018l0.013-0.001zM12.777 3.373c0.102-0.007 0.205-0.013 0.307-0.011 1.252 0.009 2.505 0.568 3.385 1.451 1.197 1.201 1.443 2.475 1.445 4.106l-9.747 0.004c-0.039-1.402 0.187-2.681 1.106-3.788 0.883-1.063 2.143-1.64 3.504-1.762z"></path>
<path d="M19.026 12.937l-0.053-0.003c-2.708 0.369-5.953 1.676-7.648 3.899-1.129 1.481-1.549 3.025-1.506 4.867 1.312-2.298 3.045-4.208 5.11-5.684l0.053-0.036q0.097-0.069 0.202-0.146c0.262-0.193 0.553-0.407 0.841-0.491 0.203-0.060 0.333-0.017 0.511 0.087 0.127 0.145 0.235 0.302 0.213 0.505-0.023 0.22-0.245 0.384-0.409 0.505-0.104 0.078-0.272 0.198-0.441 0.315l-0.074 0.048c-0.268 0.185-0.536 0.369-0.792 0.574-1.655 1.323-3.259 3.103-4.257 4.981 2.143-0.042 4.493-0.809 6.007-2.371 1.635-1.687 2.251-4.651 2.268-6.954 0-0.035-0.001-0.040-0.011-0.061l-0.008-0.020zM19.425 11.702l0.016-0.002c0.069-0.007 0.137-0.014 0.205-0.016 0.143-0.003 0.296 0.029 0.397 0.136 0.166 0.173 0.181 0.441 0.181 0.668-0.004 2.871-0.541 6.263-2.673 8.367-1.907 1.881-4.721 2.707-7.356 2.699l-0.052 0.129-0.002 0.004c-0.149 0.367-0.298 0.733-0.429 1.107-0.039 0.109-0.083 0.263-0.131 0.432-0.101 0.353-0.22 0.767-0.335 0.94-0.108 0.16-0.273 0.197-0.453 0.227-0.064-0.007-0.121-0.019-0.177-0.036l0.007 0.002c-0.141-0.040-0.255-0.135-0.32-0.259l-0.001-0.003c-0.212-0.453 0.397-1.985 0.66-2.645l0.062-0.157c-0.142-0.394-0.252-0.854-0.308-1.33l-0.003-0.030c-0.24-2.131 0.485-4.295 1.813-5.959 2.065-2.589 5.703-3.903 8.899-4.273z"></path>
<path d="M19.441 11.7l-0.016 0.002c-3.195 0.37-6.833 1.684-8.899 4.273-1.327 1.663-2.053 3.827-1.813 5.959 0.053 0.468 0.159 0.915 0.311 1.36l-0.063 0.157c-0.262 0.659-0.871 2.191-0.66 2.644 0.062 0.131 0.187 0.219 0.322 0.262q0.083 0.026 0.17 0.035c0.179-0.029 0.345-0.067 0.453-0.227 0.115-0.172 0.233-0.586 0.335-0.94 0.048-0.169 0.093-0.323 0.131-0.433 0.131-0.373 0.28-0.74 0.429-1.106l0.002-0.004 0.053-0.129c2.635 0.007 5.449-0.817 7.355-2.698 2.132-2.104 2.669-5.497 2.673-8.367 0-0.227-0.015-0.495-0.181-0.668-0.102-0.107-0.255-0.139-0.397-0.136-0.069 0.002-0.137 0.009-0.206 0.016zM18.973 12.935l0.053 0.003q0.002 0.009 0.005 0.015l0.009 0.020c0.009 0.022 0.011 0.026 0.011 0.061-0.017 2.303-0.633 5.268-2.268 6.954-1.513 1.562-3.863 2.329-6.007 2.371 0.998-1.877 2.603-3.658 4.257-4.981 0.256-0.205 0.524-0.389 0.792-0.574q0.26-0.177 0.515-0.363c0.165-0.12 0.387-0.285 0.409-0.505 0.021-0.203-0.087-0.36-0.213-0.505-0.178-0.103-0.308-0.147-0.511-0.087-0.289 0.085-0.579 0.298-0.841 0.491q-0.105 0.077-0.202 0.146c-2.119 1.512-3.851 3.422-5.118 5.634l-0.045 0.086c-0.043-1.842 0.377-3.385 1.507-4.867 1.695-2.223 4.94-3.531 7.648-3.9zM60.587 19.505c-0.080-2.202-1.884-3.957-4.098-3.957-2.265 0-4.101 1.836-4.101 4.101 0 0.051 0.001 0.101 0.003 0.152l-0-0.007c0.080 2.202 1.885 3.957 4.099 3.957 2.265 0 4.101-1.836 4.101-4.101 0-0.051-0.001-0.102-0.003-0.152l0 0.007zM56.487 16.78c0.661 0.027 1.196 0.186 1.699 0.631 0.6 0.531 0.934 1.298 0.978 2.093s-0.207 1.601-0.747 2.193c-0.495 0.541-1.112 0.783-1.835 0.82-0.66-0.007-1.203-0.11-1.724-0.543-0.608-0.505-0.951-1.253-1.016-2.035-0.067-0.812 0.146-1.651 0.685-2.275 0.535-0.617 1.167-0.83 1.96-0.885zM49.189 19.165c-0.252-2.044-1.978-3.611-4.070-3.611-2.264 0-4.099 1.835-4.099 4.099 0 0.172 0.011 0.341 0.031 0.508l-0.002-0.020c0.252 2.044 1.978 3.611 4.070 3.611 2.264 0 4.099-1.835 4.099-4.099 0-0.172-0.011-0.341-0.031-0.508l0.002 0.020zM44.755 16.814c0.657-0.053 1.251 0.015 1.806 0.397 0.623 0.428 1.013 1.089 1.143 1.828 0.147 0.839 0.009 1.736-0.496 2.435-0.441 0.613-0.993 0.916-1.729 1.033-0.671 0.034-1.265-0.007-1.831-0.407-0.597-0.424-1.015-1.067-1.138-1.808l-0.002-0.016c-0.137-0.813 0.027-1.749 0.512-2.425 0.427-0.593 1.022-0.923 1.735-1.037zM69.185 15.545c-0.022 0.001-0.043 0.002-0.064 0.005l0.003-0c-1.032 0.122-1.962 0.621-2.611 1.441-0.741 0.936-0.995 2.122-0.849 3.295 0.127 1.064 0.668 1.982 1.455 2.603l0.008 0.006c0.968 0.751 2.195 0.943 3.39 0.779 0.692-0.095 1.731-0.427 2.173-1.002 0.103-0.127 0.165-0.29 0.165-0.468 0-0.033-0.002-0.066-0.006-0.099l0 0.004c-0.016-0.15-0.091-0.279-0.2-0.368l-0.001-0.001c-0.135-0.1-0.316-0.113-0.477-0.082-0.223 0.044-0.424 0.182-0.614 0.313q-0.060 0.042-0.119 0.081c-0.835 0.433-1.761 0.637-2.679 0.34-0.661-0.222-1.19-0.688-1.49-1.287l-0.007-0.015c-0.159-0.315-0.237-0.651-0.307-0.995h3.94c0.164 0 0.34 0.007 0.521 0.012 0.467 0.015 0.967 0.031 1.38-0.043 0.124-0.025 0.231-0.084 0.315-0.167l-0 0c0.194-0.189 0.228-0.457 0.223-0.715-0.022-0.987-0.486-1.96-1.204-2.629-0.829-0.771-1.829-1.061-2.944-1.011zM69.306 16.779c0.086-0.011 0.185-0.017 0.286-0.017 0.528 0 1.016 0.167 1.416 0.451l-0.008-0.005c0.589 0.419 0.899 1.013 1.023 1.713-0.499 0.007-1 0.005-1.5 0.003l-0.749-0.001-2.771 0.004c0.127-0.427 0.275-0.813 0.547-1.171 0.439-0.575 1.047-0.884 1.757-0.977z"></path>
<path d="M47.24 12.615c1.479-0.035 2.965-0.003 4.445-0.005 0.843-0.001 1.92-0.069 2.738 0.015 0.132 0.013 0.237 0.051 0.337 0.139 0.143 0.124 0.237 0.312 0.243 0.502 0.004 0.172-0.101 0.369-0.225 0.484-0.095 0.088-0.207 0.123-0.332 0.143-0.341 0.055-0.717 0.023-1.063 0.023l-1.836-0.003-0.001 6.815c0.003 0.574 0.075 1.827-0.011 2.315-0.027 0.153-0.083 0.306-0.188 0.423-0.109 0.118-0.265 0.193-0.439 0.193h-0c-0.177 0.004-0.349-0.035-0.476-0.163-0.15-0.15-0.205-0.371-0.223-0.576-0.033-0.379-0.003-0.779 0.001-1.159 0.007-0.562 0.002-1.125 0.001-1.687l0.005-6.163c-0.611 0.003-2.725 0.1-3.157-0.097-0.15-0.065-0.264-0.189-0.314-0.343l-0.001-0.004c-0.020-0.060-0.032-0.129-0.032-0.2 0-0.119 0.032-0.23 0.088-0.325l-0.002 0.003c0.104-0.188 0.242-0.269 0.441-0.33zM37.566 15.551c0.549-0.031 1.086 0.004 1.619 0.147 0.563 0.151 1.425 0.483 1.716 1.018 0.080 0.147 0.121 0.323 0.065 0.486-0.058 0.166-0.216 0.293-0.375 0.358-0.463 0.189-1.043-0.449-1.479-0.613-0.709-0.267-1.561-0.252-2.251 0.070-0.633 0.296-1.089 0.856-1.325 1.507-0.273 0.755-0.297 1.739 0.051 2.475 0.322 0.682 0.915 1.158 1.618 1.407 0.805 0.285 1.643 0.133 2.395-0.227 0.233-0.127 0.445-0.295 0.71-0.349 0.035-0.009 0.076-0.014 0.118-0.014 0.101 0 0.195 0.030 0.273 0.083l-0.002-0.001c0.145 0.1 0.261 0.297 0.28 0.471 0.018 0.164-0.046 0.314-0.147 0.44-0.44 0.545-1.42 0.819-2.087 0.901-1.156 0.142-2.361-0.090-3.287-0.828-0.846-0.666-1.416-1.65-1.53-2.768l-0.001-0.017c-0.015-0.131-0.023-0.283-0.023-0.437 0-0.993 0.345-1.904 0.922-2.622l-0.006 0.008c0.662-0.823 1.628-1.377 2.725-1.491l0.017-0.001zM62.269 13.481l0.069-0.003c0.205-0.007 0.411 0.049 0.556 0.2 0.346 0.361 0.209 1.578 0.205 2.076 0.471 0.003 1.616-0.143 1.969 0.171 0.128 0.113 0.18 0.271 0.18 0.44 0.001 0.163-0.041 0.319-0.163 0.433-0.329 0.313-1.52 0.19-1.987 0.187 0.004 1.001-0.131 4.087 0.177 4.845 0.499 1.228 1.579 0.148 2.196 0.438 0.132 0.063 0.24 0.193 0.289 0.331 0.069 0.194 0.007 0.368-0.072 0.547l-0.041 0.045c-0.373 0.388-1.072 0.481-1.587 0.488-0.596 0.009-1.16-0.093-1.6-0.533-0.318-0.319-0.516-0.757-0.613-1.192-0.15-0.673-0.088-1.417-0.087-2.103l0.001-2.865q-0.543 0-1.085-0.009c-0.065-0.039-0.12-0.080-0.173-0.124l0.002 0.002c-0.143-0.129-0.207-0.321-0.213-0.51-0.001-0.010-0.001-0.022-0.001-0.034 0-0.153 0.063-0.291 0.164-0.39l0-0c0.293-0.271 0.935-0.173 1.307-0.167-0.001-0.522-0.116-1.456 0.081-1.915 0.088-0.203 0.231-0.277 0.427-0.359z"></path>
<path d="M33.581 13.287c-0.623-0.061-3.673-0.040-4.731-0.025-0.194 0.003-0.375 0.017-0.533 0.028-0.135 0.010-0.253 0.019-0.351 0.019 0 0-0.421 0.099-0.558 0.288-0.089 0.124-0.12 0.282-0.141 0.43-0.113 0.788-0.179 1.591-0.245 2.393-0.035 0.421-0.069 0.842-0.111 1.259l-0.401 4.049c-0.011 0.108-0.029 0.256-0.050 0.424-0.068 0.542-0.162 1.293-0.101 1.593 0.033 0.165 0.122 0.303 0.268 0.389 0.145 0.085 0.309 0.133 0.473 0.162h0.001c0.34-0.001 0.853 0.005 1.427 0.011 1.189 0.012 4.211 0.027 4.913-0.003 0.14-0.007 0.289-0.018 0.421-0.068 0.179-0.065 0.32-0.199 0.392-0.37l0.002-0.004c0.071-0.18 0.055-0.381-0.025-0.555-0.067-0.16-0.202-0.28-0.368-0.326l-0.004-0.001h-6.074q0.152-1.342 0.272-2.687l0.071-0.729 0.007-0.072q0.073 0 0.185 0.003c0.619 0.009 3.63 0.031 4.013-0.027 0.141-0.020 0.273-0.056 0.375-0.16 0.133-0.134 0.189-0.32 0.178-0.507-0.009-0.172-0.084-0.326-0.2-0.437l-0-0c-0.077-0.069-0.175-0.117-0.283-0.132l-0.003-0c-0.359-0.052-3.035-0.038-3.711-0.029-0.181 0.003-0.332 0.005-0.429 0.005l0.308-3.633h3.278c0.167 0 0.341 0.007 0.518 0.012 0.428 0.013 0.871 0.027 1.269-0.034 0.143-0.016 0.27-0.079 0.365-0.173l-0 0c0.127-0.127 0.195-0.317 0.185-0.494-0.023-0.322-0.279-0.577-0.599-0.6l-0.002-0z"></path>
</symbol>
</defs>
</svg>
