<svg xmlns="http://www.w3.org/2000/svg" fill="none" viewBox="0 0 112 48">
  <path fill="#030a06" d="M19.55 3.333c-.213 0-.438 0-.65.026-2.453.205-4.707 1.247-6.313 3.146-1.747 2.066-2.17 4.243-2.15 6.873l-4.674-.007q-.314-.001-.645-.012c-.61-.017-1.243-.034-1.815.07-.344.063-.645.231-.887.483-.424.442-.435 1-.407 1.571.044.901.12 1.803.198 2.704q.064.736.12 1.47l.777 10.025.377 4.841q.027.36.049.723c.053.866.107 1.745.336 2.574a7.77 7.77 0 0 0 5.587 5.448c1.048.253 2.265.225 3.409.198q.512-.014.995-.016l6.292-.002 5.496.002c.3 0 .61.008.922.015 1.015.024 2.073.05 3.022-.172 1.335-.31 2.685-1.043 3.66-2.009.906-.9 1.63-2.1 1.947-3.34.242-.95.303-1.99.362-3 .019-.326.037-.649.062-.964l.516-6.64.643-8.151q.048-.605.112-1.218c.087-.884.175-1.774.173-2.648 0-.537-.114-1.038-.5-1.437-.264-.275-.697-.41-1.064-.47-.55-.089-1.152-.073-1.735-.058q-.324.01-.634.012-2.205-.005-4.411.016h-.063c.034-2.816-.593-5.234-2.618-7.294a9.03 9.03 0 0 0-6.458-2.759zm8.91 16.069.079.005.006.015.012.029.004.007c.014.033.017.04.016.092-.025 3.454-.95 7.902-3.402 10.432-2.27 2.342-5.795 3.492-9.01 3.556 1.497-2.817 3.904-5.488 6.386-7.472.384-.306.785-.583 1.188-.86.258-.18.517-.358.772-.544.247-.182.58-.428.614-.758.032-.304-.13-.54-.32-.758-.267-.155-.462-.22-.767-.13-.433.127-.869.447-1.262.736q-.157.116-.303.22a26.4 26.4 0 0 0-7.745 8.579c-.065-2.763.565-5.078 2.259-7.3 2.543-3.335 7.41-5.296 11.473-5.849m-24.707-4.3H35.33c-.112 1.063-.185 2.136-.257 3.207q-.059.896-.128 1.788l-.85 10.655-.318 3.926-.04.514c-.051.677-.103 1.36-.234 2.024-.134.68-.394 1.272-.747 1.866a7 7 0 0 1-.443.595c-.915 1.094-2.418 1.909-3.845 2.017-.777.059-1.577.044-2.37.03q-.513-.011-1.021-.014l-6.552-.002-5.213.003q-.377.001-.765.01c-.79.017-1.6.034-2.36-.097a5.63 5.63 0 0 1-2.696-1.271 5.9 5.9 0 0 1-1.892-2.977c-.213-.77-.266-1.592-.318-2.398q-.019-.304-.042-.603l-.31-3.995zM29.16 17.55l-.024.002c-4.793.555-10.25 2.526-13.348 6.409-1.992 2.496-3.08 5.741-2.72 8.938.079.702.238 1.373.467 2.04l-.094.236c-.393.989-1.307 3.287-.99 3.967a.78.78 0 0 0 .483.392q.125.039.255.052c.269-.044.517-.1.679-.34.173-.258.35-.879.503-1.41.072-.253.139-.485.197-.649.196-.56.42-1.11.643-1.659l.003-.006.078-.193c3.953.012 8.175-1.226 11.034-4.047 3.198-3.156 4.003-8.245 4.01-12.551 0-.34-.023-.743-.271-1.002-.153-.16-.383-.208-.596-.204a4 4 0 0 0-.31.025M19.166 5.06c.153-.01.307-.019.46-.017 1.878.013 3.758.852 5.077 2.176 1.796 1.801 2.164 3.713 2.168 6.159l-6.88-.004-7.74.01c-.059-2.103.28-4.022 1.659-5.682 1.324-1.595 3.215-2.46 5.256-2.643"/>
  <path fill="#030a06" d="m28.539 19.406-.08-.004c-4.062.553-8.93 2.514-11.472 5.849-1.694 2.222-2.324 4.537-2.259 7.3a26.4 26.4 0 0 1 7.745-8.58q.146-.103.303-.219c.393-.289.83-.61 1.262-.736.305-.09.5-.025.767.13.19.217.352.453.32.758-.035.33-.367.576-.614.757a33 33 0 0 1-.772.544c-.402.277-.804.554-1.188.861-2.482 1.984-4.889 4.655-6.386 7.471 3.215-.063 6.74-1.213 9.01-3.556 2.452-2.53 3.377-6.977 3.402-10.431 0-.053-.002-.06-.017-.092l-.012-.03zm.598-1.853.024-.003c.103-.01.205-.021.308-.024.214-.004.444.044.596.204.249.26.272.662.272 1.002-.006 4.306-.812 9.395-4.01 12.55-2.86 2.822-7.081 4.06-11.034 4.048l-.078.193-.003.006c-.223.55-.447 1.1-.643 1.66-.058.163-.125.395-.197.648-.152.53-.33 1.151-.503 1.41-.162.24-.41.296-.679.34a1.4 1.4 0 0 1-.255-.052.78.78 0 0 1-.482-.392c-.318-.68.596-2.978.99-3.967l.093-.236a9.5 9.5 0 0 1-.467-2.04c-.36-3.197.728-6.443 2.72-8.938 3.098-3.883 8.555-5.854 13.349-6.409"/>
  <path fill="#030a06" d="m29.161 17.55-.024.003c-4.793.555-10.25 2.526-13.348 6.409-1.991 2.495-3.08 5.741-2.72 8.938.079.702.238 1.372.467 2.04l-.094.236c-.393.989-1.307 3.287-.99 3.966.093.197.28.329.483.393q.125.039.255.052c.269-.044.517-.1.679-.34.173-.258.35-.879.503-1.41.072-.253.139-.485.197-.649.197-.56.42-1.11.643-1.659l.003-.006.079-.193c3.952.011 8.174-1.226 11.033-4.047 3.198-3.156 4.003-8.245 4.01-12.551 0-.34-.023-.743-.271-1.002-.153-.16-.383-.208-.596-.204-.103.003-.206.014-.309.024m-.701 1.852.08.004q.003.013.008.022l.013.03c.014.033.017.039.016.092-.025 3.454-.95 7.902-3.402 10.431-2.27 2.343-5.795 3.493-9.01 3.556 1.497-2.816 3.904-5.487 6.386-7.471.384-.307.786-.584 1.188-.861q.39-.265.772-.544c.247-.18.58-.427.614-.757.032-.305-.13-.54-.32-.758-.267-.155-.462-.22-.767-.13-.433.127-.869.447-1.262.736q-.158.116-.303.219a26.4 26.4 0 0 0-7.745 8.58c-.065-2.763.565-5.078 2.26-7.3 2.542-3.335 7.41-5.296 11.472-5.85M90.88 29.257a6.151 6.151 0 1 0-12.295.433 6.151 6.151 0 0 0 12.296-.434m-6.15-4.086c.991.04 1.794.279 2.549.947.9.797 1.401 1.947 1.467 3.139s-.31 2.401-1.121 3.29c-.742.811-1.668 1.175-2.752 1.23-.99-.011-1.805-.165-2.586-.815-.912-.758-1.427-1.88-1.524-3.052-.1-1.218.219-2.477 1.027-3.412.803-.926 1.75-1.245 2.94-1.327M73.784 28.747a6.148 6.148 0 1 0-12.21 1.463 6.148 6.148 0 0 0 12.21-1.463m-6.651-3.526c.985-.08 1.877.023 2.709.596.934.642 1.52 1.634 1.715 2.742.22 1.258.013 2.604-.744 3.652-.662.919-1.49 1.374-2.594 1.55-1.007.051-1.898-.01-2.746-.61a4.16 4.16 0 0 1-1.711-2.737c-.206-1.22.04-2.623.768-3.637.64-.89 1.533-1.385 2.603-1.556M103.777 23.318a1 1 0 0 0-.091.007c-1.548.183-2.943.932-3.916 2.161-1.111 1.404-1.492 3.183-1.273 4.942a5.83 5.83 0 0 0 2.195 3.914c1.452 1.127 3.292 1.414 5.085 1.169 1.038-.143 2.597-.64 3.26-1.503a1.12 1.12 0 0 0 .238-.844.82.82 0 0 0-.302-.553c-.203-.15-.474-.17-.716-.123-.335.066-.636.273-.921.47q-.09.063-.179.122c-1.252.65-2.641.956-4.019.51a3.84 3.84 0 0 1-2.245-1.953c-.238-.473-.356-.976-.461-1.492h5.91c.246 0 .51.01.781.018.701.022 1.451.046 2.07-.064a.93.93 0 0 0 .472-.25c.291-.284.342-.685.334-1.072-.033-1.48-.729-2.94-1.806-3.943-1.243-1.156-2.744-1.591-4.416-1.516m.182 1.85a3.67 3.67 0 0 1 2.541.644c.883.628 1.348 1.52 1.534 2.569-.749.01-1.5.007-2.25.005l-1.124-.002-4.157.006c.191-.64.412-1.22.821-1.756.659-.863 1.571-1.326 2.635-1.466"/>
  <path fill="#030a06" d="M70.86 18.923c2.218-.053 4.448-.004 6.668-.008 1.265-.002 2.88-.104 4.107.022.198.02.355.076.505.208.214.186.356.468.364.753.006.258-.152.553-.338.726-.142.132-.311.184-.498.214-.511.083-1.075.035-1.594.034l-2.754-.005-.001 10.222c.004.861.113 2.74-.017 3.473-.04.23-.124.459-.282.635a.9.9 0 0 1-.658.29c-.265.006-.523-.052-.714-.244-.225-.225-.307-.557-.335-.864-.05-.568-.004-1.168.002-1.738.01-.843.003-1.687.002-2.53l.007-9.245c-.916.004-4.087.15-4.736-.145a.84.84 0 0 1-.472-.52.96.96 0 0 1 .082-.783c.156-.282.363-.403.662-.495M56.349 23.326c.824-.046 1.629.006 2.429.22.845.227 2.137.725 2.574 1.527.12.22.182.485.098.729-.087.249-.324.439-.562.537-.695.284-1.565-.673-2.218-.92-1.063-.4-2.342-.378-3.376.105-.95.444-1.633 1.284-1.987 2.26-.41 1.132-.445 2.609.076 3.713.483 1.023 1.373 1.737 2.427 2.11 1.207.427 2.465.2 3.593-.341.35-.19.667-.442 1.065-.524a.74.74 0 0 1 .584.101c.217.15.391.446.42.707.027.246-.069.471-.22.66-.66.817-2.13 1.228-3.13 1.351-1.734.213-3.541-.135-4.93-1.242a6.06 6.06 0 0 1-2.297-4.178 6.28 6.28 0 0 1 1.34-4.576 6.04 6.04 0 0 1 4.114-2.239M93.403 20.222l.103-.004c.308-.01.617.073.834.3.519.541.313 2.367.307 3.114.706.005 2.424-.215 2.953.256.192.17.27.407.27.66.001.244-.062.478-.244.65-.494.47-2.28.285-2.98.28.006 1.502-.197 6.13.266 7.268.748 1.842 2.369.222 3.294.657.198.094.36.29.433.496.104.291.011.552-.108.82l-.062.068c-.559.582-1.608.721-2.38.732-.894.013-1.74-.139-2.4-.8-.477-.479-.774-1.135-.919-1.788-.225-1.009-.132-2.125-.131-3.154l.002-4.297q-.814 0-1.627-.013a2 2 0 0 1-.256-.184c-.214-.194-.311-.482-.32-.765a.82.82 0 0 1 .244-.636c.439-.406 1.402-.26 1.96-.25-.002-.783-.174-2.184.121-2.872.132-.305.346-.416.64-.538"/>
  <path fill="#030a06" fill-rule="evenodd" d="M50.372 19.93c-.934-.092-5.509-.06-7.096-.037-.291.005-.562.025-.8.042-.202.015-.38.028-.527.029 0 0-.632.148-.837.432-.134.186-.18.423-.211.645-.17 1.182-.269 2.387-.368 3.59-.052.631-.104 1.263-.166 1.889l-.602 6.074c-.016.162-.044.384-.075.636-.102.813-.243 1.94-.152 2.389.05.248.183.454.402.583.217.128.463.2.71.243h.002c.51-.001 1.28.007 2.14.016 1.783.018 6.316.04 7.37-.005.21-.01.433-.027.631-.102a1 1 0 0 0 .59-.561c.106-.27.082-.572-.038-.832a.84.84 0 0 0-.558-.49h-9.111q.228-2.013.408-4.03l.107-1.093.01-.108q.11 0 .277.004c.928.014 5.445.046 6.02-.04.212-.03.409-.084.563-.24.2-.201.284-.48.267-.76a.98.98 0 0 0-.3-.656.8.8 0 0 0-.429-.198c-.538-.078-4.553-.057-5.567-.044-.272.004-.498.007-.644.007l.462-5.45h4.917c.25 0 .512.01.777.018.642.02 1.306.041 1.903-.051a.93.93 0 0 0 .548-.26c.19-.19.292-.476.278-.741a.97.97 0 0 0-.901-.9" clip-rule="evenodd"/>
</svg>
