<svg width="27" height="31" viewBox="0 0 27 31" fill="none" xmlns="http://www.w3.org/2000/svg">
<path d="M13.1629 2.09967e-05C13.0028 0.00015209 12.8339 0.000290295 12.6756 0.0191782C10.8355 0.172676 9.14452 0.954351 7.9403 2.37838C6.62981 3.9281 6.31289 5.56087 6.32824 7.53378L2.8225 7.52842C2.66547 7.52828 2.50314 7.52379 2.33852 7.51923C1.88113 7.50657 1.40604 7.49341 0.97757 7.57191C0.719175 7.61928 0.493704 7.74495 0.311985 7.93411C-0.00616872 8.26532 -0.0138996 8.68366 0.00677402 9.11226C0.0393812 9.78803 0.0974199 10.4647 0.155392 11.1406C0.186929 11.5082 0.218473 11.876 0.245881 12.2432L0.827754 19.7617L1.11087 23.3925C1.12481 23.5717 1.13595 23.7527 1.14714 23.9345C1.18712 24.5843 1.22769 25.2436 1.39923 25.8652C1.69558 26.9222 2.28292 27.8746 3.09431 28.6143C3.80343 29.2582 4.66054 29.7176 5.58966 29.9513C6.37553 30.141 7.28853 30.1195 8.14613 30.0994C8.40139 30.0934 8.65173 30.0875 8.89236 30.0873L13.6119 30.0859L17.7338 30.0877C17.959 30.0877 18.1908 30.0932 18.4254 30.0988C19.1868 30.1169 19.9803 30.1358 20.6918 29.9699C21.6926 29.737 22.7055 29.1875 23.4362 28.463C24.1161 27.7885 24.6594 26.8879 24.8968 25.9575C25.0784 25.2456 25.124 24.4648 25.1682 23.7075C25.1825 23.4633 25.1966 23.2214 25.2151 22.9852L25.6019 18.0057L26.0843 11.8916C26.1076 11.5896 26.1378 11.2844 26.1681 10.9785C26.2337 10.3156 26.2998 9.64761 26.2983 8.99245C26.2976 8.58945 26.2123 8.21351 25.9235 7.91424C25.7248 7.70802 25.3999 7.60732 25.125 7.56247C24.7129 7.49528 24.2611 7.50727 23.824 7.51886C23.6623 7.52315 23.5027 7.52738 23.3479 7.52754C22.2454 7.52539 21.1424 7.52929 20.0399 7.53917L19.9925 7.53986C20.0184 5.42706 19.548 3.61406 18.0291 2.06884C16.7599 0.753782 15.0134 0.00765668 13.186 0L13.1629 2.09967e-05ZM19.8448 12.0514L19.9042 12.0549C19.9058 12.0589 19.9073 12.0627 19.9087 12.0661C19.9094 12.068 19.9102 12.0697 19.9108 12.0714C19.9134 12.0777 19.9158 12.0832 19.9179 12.0879L19.9203 12.0936C19.9312 12.1183 19.9332 12.1228 19.9327 12.1626C19.9137 14.7533 19.2202 18.0888 17.3815 19.9862C15.6788 21.7432 13.0347 22.6054 10.6235 22.6532C11.7466 20.5408 13.5514 18.5374 15.413 17.0496C15.7009 16.8197 16.0023 16.6118 16.3039 16.4039C16.4981 16.27 16.6923 16.1361 16.8831 15.9961C17.0683 15.8602 17.3177 15.6758 17.344 15.4279C17.3681 15.1996 17.2466 15.0225 17.1037 14.8594C16.9035 14.7434 16.757 14.695 16.5284 14.762C16.2038 14.8573 15.8768 15.0974 15.5816 15.3141C15.5034 15.3715 15.4274 15.4274 15.3543 15.4783C12.9673 17.1687 10.9838 19.366 9.54598 21.913C9.49749 19.8408 9.96936 18.105 11.2402 16.4381C13.1474 13.9367 16.7978 12.4666 19.8448 12.0514ZM1.31457 8.82615L24.9974 8.82578C24.9133 9.62341 24.8589 10.4283 24.8045 11.232C24.7743 11.6797 24.744 12.1274 24.7086 12.5731L24.0709 20.5641L23.8325 23.5088C23.8219 23.6367 23.8122 23.7651 23.8025 23.8939C23.7642 24.402 23.7256 24.9146 23.6276 25.412C23.5269 25.9225 23.3315 26.3662 23.0668 26.8114C22.9647 26.9663 22.8539 27.1155 22.735 27.258C22.0485 28.0784 20.9215 28.6894 19.851 28.7704C19.2681 28.8144 18.6683 28.8034 18.0742 28.7925C17.8171 28.7877 17.5609 28.783 17.3075 28.7828L12.3941 28.7813L8.48425 28.7831C8.29567 28.7832 8.10373 28.7872 7.91036 28.7912C7.31738 28.8035 6.71023 28.816 6.14032 28.7179C5.39281 28.5874 4.69423 28.2581 4.11819 27.7644C3.42818 27.1825 2.93297 26.4034 2.69933 25.5316C2.5395 24.9538 2.49965 24.3381 2.46052 23.7336C2.45069 23.5817 2.4409 23.4306 2.42927 23.2809L2.19673 20.2847L1.31457 8.82615ZM20.3707 10.663L20.3531 10.6648C16.7581 11.0807 12.6654 12.5594 10.3417 15.4715C8.8481 17.3431 8.03212 19.7775 8.30163 22.1748C8.36081 22.7012 8.48003 23.2043 8.65187 23.7049C8.63243 23.7547 8.60871 23.8143 8.58172 23.8821C8.28668 24.6236 7.60091 26.3472 7.83942 26.8569C7.90841 27.0042 8.04893 27.1031 8.20129 27.1515C8.26408 27.1712 8.3273 27.1825 8.39264 27.1902C8.59404 27.157 8.78021 27.1155 8.90144 26.9353C9.03162 26.7415 9.16492 26.276 9.27894 25.8779C9.33326 25.6882 9.38322 25.5138 9.4264 25.3912C9.5741 24.9717 9.74181 24.559 9.9093 24.1469L9.91125 24.1421C9.93086 24.0938 9.95046 24.0456 9.97002 23.9974C12.9345 24.0061 16.1007 23.0782 18.2453 20.9622C20.6437 18.5953 21.2478 14.7787 21.2526 11.5488C21.2529 11.2942 21.2354 10.992 21.0491 10.7972C20.9346 10.6774 20.7622 10.6413 20.6021 10.6448C20.5249 10.6465 20.4476 10.6548 20.3707 10.663ZM12.8747 1.29533C12.9895 1.28822 13.1048 1.2818 13.2196 1.2826C14.6277 1.29249 16.0376 1.92227 17.0272 2.91464C18.3744 4.2659 18.65 5.69982 18.6529 7.53388L13.4938 7.53108L7.68838 7.5383C7.64397 5.96179 7.89788 4.52186 8.93215 3.27702C9.92574 2.08116 11.3438 1.43209 12.8747 1.29533Z" fill="#030A06"/>
</svg>
